<?xml version="1.0" encoding="UTF-8"?>
<svg width="283px" height="50px" viewBox="0 0 283 50" version="1.1" xmlns="http://www.w3.org/2000/svg" xmlns:xlink="http://www.w3.org/1999/xlink">
    <title>FILM&amp;PHOTO</title>
    <g id="섹터패스" stroke="none" stroke-width="1" fill="none" fill-rule="evenodd">
        <g id="pc_섹터메인_필름" transform="translate(-168.000000, -395.000000)" fill="#BC957B" fill-rule="nonzero">
            <path d="M175.560137,445 L175.560137,423.65 L185.319588,423.65 L185.319588,416.65 L175.560137,416.65 L175.560137,403 L188,403 L188,396 L168,396 L168,445 L175.560137,445 Z M200,445 L200,396 L192,396 L192,445 L200,445 Z M226,445 L226,438 L213.560137,438 L213.560137,396 L206,396 L206,445 L226,445 Z M235.736842,445 L235.736842,407.9 L235.877193,407.9 L241.491228,445 L247.947368,445 L253.561404,407.9 L253.701754,407.9 L253.701754,445 L261,445 L261,396 L249.982456,396 L245.070175,431.07 L244.929825,431.07 L240.017544,396 L229,396 L229,445 L235.736842,445 Z M286.402204,445 C288.009183,445 289.352158,444.631925 290.431129,443.895775 C291.510101,443.159624 292.46281,442.032394 293.289256,440.514085 L293.289256,440.514085 L293.426997,440.514085 C293.518825,442.032394 293.748393,443.297653 294.115702,444.309859 L294.115702,444.309859 L301.69146,444.309859 C301.324151,443.48169 301.094582,442.642019 301.002755,441.790845 C300.910927,440.939671 300.865014,439.823944 300.865014,438.443662 L300.865014,438.443662 L300.865014,422.570423 L303,422.570423 L303,415.669014 L300.865014,415.669014 L300.865014,410.285915 L293.426997,410.285915 L293.426997,415.669014 L290.465565,415.669014 C288.950413,415.669014 287.81405,415.277934 287.056474,414.495775 C286.298898,413.713615 285.92011,412.402347 285.92011,410.561972 L285.92011,410.561972 L285.92011,407.594366 C285.92011,405.938028 286.252984,404.741784 286.918733,404.005634 C287.584481,403.269484 288.53719,402.901408 289.77686,402.901408 L289.77686,402.901408 L298.316804,402.901408 L298.316804,396 L289.639118,396 C285.874197,396 283.050505,397.012207 281.168044,399.03662 C279.285583,401.061033 278.344353,404.028638 278.344353,407.939437 L278.344353,407.939437 L278.344353,408.83662 C278.344353,411.413146 278.769054,413.518075 279.618457,415.151408 C280.46786,416.784742 281.787879,417.969484 283.578512,418.705634 L283.578512,418.705634 L283.578512,418.843662 C281.604224,419.625822 280.1809,420.868075 279.30854,422.570423 C278.43618,424.27277 278,426.389202 278,428.919718 L278,428.919718 L278,433.957746 C278,437.546479 278.711662,440.284038 280.134986,442.170423 C281.55831,444.056808 283.647383,445 286.402204,445 Z M288.719298,438 C287.549708,438 286.637427,437.644444 285.982456,436.933333 C285.327485,436.222222 285,435.037037 285,433.377778 L285,433.377778 L285,428.328889 C285,426.053333 285.397661,424.42963 286.192982,423.457778 C286.988304,422.485926 288.274854,422 290.052632,422 L290.052632,422 L293,422 L293,433.52 C292.578947,436.506667 291.152047,438 288.719298,438 Z M325.760736,445 L325.760736,425.05 L329.429448,425.05 C333.286299,425.05 336.178937,424.023333 338.107362,421.97 C340.035787,419.916667 341,416.906667 341,412.94 L341,412.94 L341,408.11 C341,404.143333 340.035787,401.133333 338.107362,399.08 C336.178937,397.026667 333.286299,396 329.429448,396 L329.429448,396 L318,396 L318,445 L325.760736,445 Z M329.433962,418 L326,418 L326,403 L329.433962,403 C330.622642,403 331.514151,403.348837 332.108491,404.046512 C332.70283,404.744186 333,405.930233 333,407.604651 L333,407.604651 L333,413.395349 C333,415.069767 332.70283,416.255814 332.108491,416.953488 C331.514151,417.651163 330.622642,418 329.433962,418 L329.433962,418 Z M352.810651,445 L352.810651,422.95 L361.189349,422.95 L361.189349,445 L369,445 L369,396 L361.189349,396 L361.189349,415.95 L352.810651,415.95 L352.810651,396 L345,396 L345,445 L352.810651,445 Z M385.5,445 C389.218563,445 392.06487,443.935185 394.038922,441.805556 C396.012974,439.675926 397,436.666667 397,432.777778 L397,432.777778 L397,407.222222 C397,403.333333 396.012974,400.324074 394.038922,398.194444 C392.06487,396.064815 389.218563,395 385.5,395 C381.781437,395 378.93513,396.064815 376.961078,398.194444 C374.987026,400.324074 374,403.333333 374,407.222222 L374,407.222222 L374,432.777778 C374,436.666667 374.987026,439.675926 376.961078,441.805556 C378.93513,443.935185 381.781437,445 385.5,445 Z M386,438 C383.333333,438 382,436.407692 382,433.223077 L382,433.223077 L382,406.776923 C382,403.592308 383.333333,402 386,402 C388.666667,402 390,403.592308 390,406.776923 L390,406.776923 L390,433.223077 C390,436.407692 388.666667,438 386,438 Z M416.882353,445 L416.882353,403 L425,403 L425,396 L401,396 L401,403 L409.117647,403 L409.117647,445 L416.882353,445 Z M439.5,445 C443.218563,445 446.06487,443.935185 448.038922,441.805556 C450.012974,439.675926 451,436.666667 451,432.777778 L451,432.777778 L451,407.222222 C451,403.333333 450.012974,400.324074 448.038922,398.194444 C446.06487,396.064815 443.218563,395 439.5,395 C435.781437,395 432.93513,396.064815 430.961078,398.194444 C428.987026,400.324074 428,403.333333 428,407.222222 L428,407.222222 L428,432.777778 C428,436.666667 428.987026,439.675926 430.961078,441.805556 C432.93513,443.935185 435.781437,445 439.5,445 Z M439,438 C436.333333,438 435,436.407692 435,433.223077 L435,433.223077 L435,406.776923 C435,403.592308 436.333333,402 439,402 C441.666667,402 443,403.592308 443,406.776923 L443,406.776923 L443,433.223077 C443,436.407692 441.666667,438 439,438 Z" id="FILM&amp;PHOTO"></path>
        </g>
    </g>
</svg>