<svg xmlns="http://www.w3.org/2000/svg" width="186" height="72" viewBox="0 0 186 72">
    <g fill="none" fill-rule="evenodd">
        <g fill="#CAA3CC" fill-rule="nonzero">
            <path d="M182.585 453.096V403.39l8.186 49.707h10.384l7.587-50.41v50.41h10.384v-70.293H203.85l-7.488 49.908-8.087-49.908H173v70.293h9.585zm61.4.904c10.783 0 16.374-6.427 16.374-17.674v-53.523h-10.383v54.226c0 5.021-2.197 6.829-5.691 6.829-3.494 0-5.69-1.808-5.69-6.829v-54.226h-10.983v53.523c0 11.247 5.59 17.674 16.374 17.674zm39.537-.1c10.782 0 16.373-6.427 16.373-17.674 0-20.084-21.465-22.795-21.465-37.255 0-5.021 1.997-6.93 5.491-6.93 3.494 0 5.491 1.909 5.491 6.93v2.912h10.383v-2.21c0-11.246-5.49-17.673-16.173-17.673-10.683 0-16.174 6.427-16.174 17.674 0 20.083 21.465 22.795 21.465 37.255 0 5.02-2.196 6.828-5.69 6.828-3.495 0-5.692-1.807-5.692-6.828v-5.021h-10.383v4.318c0 11.247 5.591 17.674 16.374 17.674zm34.644-.804v-70.293h-10.982v70.293h10.982zm24.46.804c10.783 0 16.374-6.427 16.374-17.674v-9.339h-10.383v10.042c0 5.02-2.197 6.828-5.691 6.828-3.494 0-5.69-1.807-5.69-6.828V398.97c0-5.021 2.196-6.93 5.69-6.93s5.69 1.909 5.69 6.93v7.531H359v-6.828c0-11.247-5.591-17.674-16.374-17.674-10.782 0-16.373 6.427-16.373 17.674v36.552c0 11.247 5.59 17.674 16.373 17.674z" transform="translate(-173 -382)"/>
        </g>
    </g>
</svg>
