<svg xmlns="http://www.w3.org/2000/svg" width="16" height="16" viewBox="0 0 16 16">
    <g fill="none" fill-rule="evenodd">
        <g fill="#FFF" fill-rule="nonzero">
            <g>
                <g>
                    <path d="M8 0C3.582 0 0 3.582 0 8s3.582 8 8 8 8-3.582 8-8c-.005-4.416-3.584-7.995-8-8zm6.919 10.803l-2.275.392c.26-.955.4-1.939.418-2.928h2.398c-.03.87-.213 1.729-.541 2.536zM.54 8.267h2.398c.017.99.158 1.973.418 2.928l-2.275-.392C.753 9.996.571 9.137.54 8.267zm.541-3.07l2.275-.392c-.26.955-.4 1.939-.418 2.928H.54c.03-.87.213-1.729.541-2.536zm7.186-.915c.958.012 1.914.1 2.858.26l.942.163c.289.984.444 2.003.462 3.028H8.267V4.282zm2.95-.265c-.975-.166-1.962-.256-2.95-.269v-3.2c1.528.147 2.856 1.547 3.609 3.584l-.66-.115zm-3.484-.269c-.988.013-1.974.103-2.949.27l-.66.113C4.877 2.094 6.204.693 7.734.547v3.201zm-2.858.795c.944-.162 1.9-.25 2.858-.261v3.451H3.471c.018-1.025.173-2.044.462-3.028l.942-.162zM3.47 8.267h4.262v3.451c-.958-.012-1.914-.1-2.858-.26l-.942-.163c-.289-.984-.444-2.003-.462-3.028zm1.313 3.716c.974.167 1.96.257 2.95.27v3.2c-1.53-.147-2.857-1.547-3.61-3.584l.66.114zm3.483.27c.988-.013 1.974-.103 2.949-.27l.66-.114c-.753 2.037-2.08 3.438-3.61 3.584v-3.2zm2.858-.796c-.944.162-1.9.25-2.858.261V8.267h4.262c-.018 1.025-.173 2.044-.462 3.028l-.942.162zm1.937-3.724c-.017-.99-.158-1.973-.418-2.928l2.275.392c.328.807.51 1.666.541 2.536h-2.398zM14.65 4.61l-2.18-.377c-.393-1.279-1.126-2.427-2.122-3.32 1.862.622 3.407 1.949 4.302 3.697zM5.653.913c-.996.893-1.73 2.041-2.121 3.32L1.35 4.61C2.246 2.862 3.79 1.535 5.653.913zM1.351 11.39l2.18.377c.393 1.279 1.126 2.427 2.122 3.32-1.862-.622-3.407-1.949-4.302-3.697zm8.996 3.697c.996-.893 1.73-2.041 2.121-3.32l2.181-.377c-.895 1.748-2.44 3.075-4.302 3.697z" transform="translate(-802 -851) translate(0 689) translate(802 162)"/>
                </g>
            </g>
        </g>
    </g>
</svg>
