<svg xmlns="http://www.w3.org/2000/svg" width="189" height="40" viewBox="0 0 189 40">
    <g fill="none" fill-rule="evenodd">
        <g fill="#FEB442" fill-rule="nonzero">
            <path d="M32.981 430.917c2.92 0 5.147-.832 6.68-2.495 1.535-1.663 2.302-4.01 2.302-7.04v-5.49h-5.766v5.933c0 2.365-1.017 3.548-3.05 3.548-2.032 0-3.049-1.183-3.049-3.548v-21.677c0-2.403 1.017-3.604 3.05-3.604 2.032 0 3.049 1.201 3.049 3.604v4.49h5.766v-4.102c0-3.031-.767-5.378-2.301-7.041-1.534-1.663-3.76-2.495-6.68-2.495s-5.147.832-6.681 2.495c-1.534 1.663-2.301 4.01-2.301 7.04v20.846c0 3.03.767 5.378 2.3 7.041 1.535 1.663 3.761 2.495 6.681 2.495zm18.739-.555V413.73h2.107c1.404 0 2.393.352 2.966 1.054.573.702.86 1.94.86 3.714v7.399c.005 1.28.041 2.177.11 2.691.074.555.222 1.146.443 1.774h6.21c-.296-.665-.48-1.34-.555-2.023-.074-.684-.11-1.58-.11-2.689v-6.82c0-2.29-.305-4.12-.915-5.488-.61-1.367-1.654-2.273-3.133-2.716v-.111c2.661-1.072 3.992-3.622 3.992-7.65v-2.385c0-3.03-.72-5.276-2.162-6.736s-3.733-2.19-6.875-2.19h-9.036v38.808h6.098zm2.218-22.176H51.72v-11.088h2.772c1.072 0 1.857.315 2.356.943.5.628.749 1.645.749 3.05v2.993c0 1.478-.305 2.532-.915 3.16-.61.628-1.525.942-2.744.942zm30.658 22.176v-5.544H74.062v-11.92h8.372v-5.543h-8.372v-10.257h10.534v-5.544H67.964v38.808h16.632zm7.54 0l1.109-7.595h6.93v-.11l1.108 7.705h6.099l-6.32-38.808H92.8l-6.32 38.808h5.655zm7.318-12.862h-5.489l2.661-19.182h.111l2.717 19.182zm21.732 12.862v-33.264h6.376v-5.544h-18.85v5.544h6.376v33.264h6.098zm15.413 0v-38.808H130.5v38.808h6.099zm16.909 0l5.876-38.808h-5.599l-3.992 30.104h-.11l-3.992-30.104h-6.154l5.877 38.808h8.094zm14.913 0v-38.808h-6.098v38.808h6.098zm15.413 0v-33.264h6.375v-5.544h-18.85v5.544h6.376v33.264h6.099zm21.011 0v-16.52l7.374-22.288h-5.932l-4.158 14.248h-.111l-4.158-14.248h-6.487l7.374 22.287v16.521h6.098z" transform="translate(-24 -391)"/>
        </g>
    </g>
</svg>
